<?xml version="1.0"?>
<svg xmlns="http://www.w3.org/2000/svg" viewBox="0 0 64 64" width="30" height="30"><g id="Outline"><g><path d="M57.137,16.659a1,1,0,1,0-1.584,1.221,14.083,14.083,0,0,1-2.36,19.632L47.35,42.255a1,1,0,0,0,1.259,1.553l5.844-4.744A16.072,16.072,0,0,0,57.137,16.659Z"/><circle cx="41" cy="44" r="1"/><path d="M46,38a1,1,0,0,0-1-1H37a3,3,0,0,1,0-6H49a3,3,0,0,1,0,6,1,1,0,0,0,0,2,5,5,0,0,0,0-10H44.662a8.928,8.928,0,0,0,3.112-5.023c.077,0,.149.023.226.023a4,4,0,0,0,4-4,2.447,2.447,0,0,0-.016-.245,1,1,0,0,0-2,.13c0,.012.011.1.012.115a2,2,0,1,1-3.859-.717,1,1,0,0,0-.735-1.343,3,3,0,0,1-1.972-1.415,1,1,0,0,0-1.506-.25,2.956,2.956,0,0,1-4.608-.96,1,1,0,0,0-.811-.555.976.976,0,0,0-.9.408A1.979,1.979,0,0,1,34,16a1,1,0,0,0-1,1,3,3,0,1,1-4.315-2.681,1,1,0,0,0,.147-1.706A1.978,1.978,0,0,1,28,11a2,2,0,0,1,2-2,1.978,1.978,0,0,1,1.44.621A1,1,0,0,0,33.126,9.2,3,3,0,0,1,35.982,7l.125.009a.974.974,0,0,0,1-.752,2.984,2.984,0,0,1,5.615-.5,1,1,0,0,0,1.368.474A2,2,0,0,1,47,8a1,1,0,0,0,1,1,2,2,0,0,1,1.129,3.649,1,1,0,0,0-.358,1.205,3.239,3.239,0,0,1,.121.407,1,1,0,0,0,1.019.752c.052,0,.1-.009.089-.013a2,2,0,0,1,2,2,1,1,0,0,0,2,0,4.007,4.007,0,0,0-2.678-3.775A4,4,0,0,0,48.9,7.1,4.007,4.007,0,0,0,45,4a3.834,3.834,0,0,0-.928.114,4.979,4.979,0,0,0-8.656.921A5.011,5.011,0,0,0,31.747,7.4,3.96,3.96,0,0,0,30,7a3.99,3.99,0,0,0-3.3,6.253A4.946,4.946,0,0,0,25,17a5.006,5.006,0,0,0,5,5,9,9,0,0,0,4.425,7.737A5,5,0,0,0,32.1,33H20.489a11.643,11.643,0,0,0-.331-2H30a1,1,0,0,0,0-2H20a4.424,4.424,0,0,0-.569.047,11.472,11.472,0,0,0-.547-1.07,5.679,5.679,0,0,1,.653-6.755l2.8-3.113a5.981,5.981,0,0,0-.216-8.23,3.075,3.075,0,0,0-4.243,0,2.981,2.981,0,0,0-.726,1.217A14.527,14.527,0,0,0,6.863,16.66,15.941,15.941,0,0,0,3.675,28.794a1,1,0,0,0,.988.855.927.927,0,0,0,.147-.011A1,1,0,0,0,5.654,28.5,13.956,13.956,0,0,1,8.448,17.88,12.528,12.528,0,0,1,17.211,13.1a2.815,2.815,0,0,0,.667,1l-2.8,3.112A11.645,11.645,0,0,0,13.74,31.063,5.7,5.7,0,0,1,14.455,33H10V31a1,1,0,0,0-1.447-.895l-6,3a1,1,0,0,0,0,1.79l6,3A1,1,0,0,0,10,37V35h4.455a5.7,5.7,0,0,1-.715,1.937,11.645,11.645,0,0,0,1.337,13.855l2.8,3.086a3,3,0,1,0,4.242,4.243,5.98,5.98,0,0,0,.217-8.23l-2.8-3.113a5.68,5.68,0,0,1-.652-6.755,11.433,11.433,0,0,0,.555-1.085,4.967,4.967,0,0,0,.733.062H30V53.089l-3.9-3.167a1,1,0,0,0-1.261,1.553l6.533,5.3a1,1,0,0,0,1.26,0L45.5,46.328a1,1,0,0,0-1.26-1.553L41.5,47H32V38a1,1,0,0,0-1-1H20.158a11.535,11.535,0,0,0,.331-2H32.1A5.009,5.009,0,0,0,37,39h8A1,1,0,0,0,46,38ZM32,22v-.436a5,5,0,0,0,2.921-3.673,4.02,4.02,0,0,0,1.333-.595,4.938,4.938,0,0,0,6.1,1.1,4.994,4.994,0,0,0,1.672,1.192A4.042,4.042,0,0,0,44,20a3.994,3.994,0,0,0,1.865,3.371A7,7,0,0,1,32,22ZM8,35.382,5.236,34,8,32.618ZM39.038,49,32,54.712V49ZM15.455,30.034a9.655,9.655,0,0,1,1.108-11.488l2.8-3.112a1.983,1.983,0,0,0-.072-2.727,1,1,0,1,1,1.414-1.414,3.98,3.98,0,0,1,.145,5.478l-2.8,3.113a7.669,7.669,0,0,0-.881,9.122,9.693,9.693,0,0,1,.708,1.476v0l.005.01a9.686,9.686,0,0,1,.607,2.5h-2A7.7,7.7,0,0,0,15.455,30.034Zm1.714,8.96a7.669,7.669,0,0,0,.881,9.122l2.8,3.113a3.981,3.981,0,0,1-.144,5.479,1.025,1.025,0,0,1-1.414,0,1,1,0,0,1,0-1.414,1.982,1.982,0,0,0,.071-2.727l-2.8-3.112a9.657,9.657,0,0,1-1.108-11.489A7.712,7.712,0,0,0,16.488,35h2A9.673,9.673,0,0,1,17.169,38.994Z"/><circle cx="35" cy="23" r="1"/></g></g></svg>
