<svg id="Layer_1" enable-background="new 0 0 512.001 512.001" height="20" viewBox="0 0 512.001 512.001" width="20" xmlns="http://www.w3.org/2000/svg"><g><path d="m234.327 486.333c-3.951 0-7.895-1.551-10.841-4.631l-176.325-184.333c-5.727-5.987-5.516-15.482.471-21.208 5.986-5.727 15.481-5.517 21.208.471l176.324 184.333c5.727 5.987 5.516 15.482-.471 21.208-2.906 2.779-6.639 4.16-10.366 4.16z" fill="#f9f9f9"/><path d="m277.674 486.333c-3.732 0-7.47-1.384-10.377-4.171-5.98-5.732-6.182-15.228-.45-21.208l173.324-180.833c5.733-5.981 15.228-6.182 21.208-.45s6.182 15.228.45 21.208l-173.324 180.833c-2.945 3.074-6.885 4.621-10.831 4.621z" fill="#e2dff4"/><path d="m324.347 418.052s-59.999-40.183-60-40.184c-2.557-1.713-5.651-2.607-8.727-2.522-2.218.062-4.422.615-6.403 1.615-.537.271-1.064.572-1.563.907l-60 40.184c-4.158 2.784-6.653 7.459-6.653 12.463v66.485c0 5.538 3.051 10.625 7.936 13.232 2.214 1.182 4.642 1.768 7.063 1.768 2.921 0 5.832-.852 8.348-2.537l51.652-34.594 51.653 34.594c2.516 1.685 5.427 2.537 8.348 2.537 2.421 0 4.849-.585 7.063-1.768 4.886-2.607 7.936-7.694 7.936-13.232v-66.485c0-5.004-2.495-9.679-6.653-12.463z" fill="#ff4a4a"/><g><path d="m31.004 329.735c-17.095 0-31.004-13.908-31.004-31.004 0-8.284 6.716-15 15-15s15 6.716 15 15c0 .535.469 1.004 1.004 1.004.95 0 1.308-.195 1.311-.197-.011 0 .089-.145.205-.429 18.145-44.447 48.808-82.127 88.676-108.966 39.983-26.916 86.598-41.143 134.804-41.143 48.155 0 94.728 14.199 134.684 41.062 39.841 26.786 70.509 64.401 88.687 108.779.122.298.217.43.243.463.002-.021.427.162 1.383.162.535 0 1.004-.469 1.004-1.004 0-8.284 6.716-15 15-15s15 6.716 15 15c0 17.096-13.908 31.004-31.004 31.004-13.463 0-24.449-7.197-29.387-19.253-32.651-79.709-109.433-131.213-195.61-131.213-86.289 0-163.108 51.596-195.706 131.448-4.929 12.077-15.878 19.287-29.29 19.287z" fill="#74564f"/></g><path d="m497 283.462c-8.284 0-15 6.716-15 15 0 .535-.469 1.004-1.004 1.004-.956 0-1.38-.182-1.383-.162-.026-.033-.121-.165-.243-.463-18.178-44.378-48.846-81.993-88.687-108.779-39.955-26.863-86.527-41.062-134.682-41.062v30c86.176 0 162.958 51.505 195.609 131.213 4.938 12.056 15.923 19.253 29.387 19.253 17.096 0 31.004-13.908 31.004-31.004-.001-8.284-6.716-15-15.001-15z" fill="#604a43"/><path d="m324.347 418.052s-59.999-40.183-60-40.184c-2.452-1.642-5.396-2.522-8.346-2.517v99.518l51.653 34.593c2.516 1.685 5.427 2.537 8.348 2.537 2.421 0 4.849-.585 7.063-1.768 4.885-2.606 7.935-7.693 7.935-13.231v-66.485c0-5.004-2.495-9.679-6.653-12.463z" fill="#d01273"/><g><path d="m256 512.001c-8.284 0-15-6.716-15-15v-395.001c0-8.284 6.716-15 15-15s15 6.716 15 15v395.001c0 8.284-6.715 15-15 15z" fill="#ffd845"/></g><path d="m256.001 87v425.001c8.284 0 15-6.716 15-15v-395.001c-.001-8.284-6.716-15-15-15z" fill="#ffb454"/><g><path d="m307 117h-102c-5.376 0-10.342-2.878-13.015-7.543-2.673-4.666-2.645-10.404.075-15.043l51-87c2.692-4.592 7.617-7.414 12.94-7.414s10.248 2.822 12.94 7.414l51 87c2.719 4.639 2.748 10.377.075 15.043-2.672 4.665-7.638 7.543-13.015 7.543z" fill="#f9f9f9"/></g><path d="m319.941 94.414-51-87c-2.692-4.592-7.617-7.414-12.94-7.414v117h51c5.376 0 10.342-2.878 13.015-7.543 2.672-4.665 2.644-10.404-.075-15.043z" fill="#e2dff4"/></g></svg>