<?xml version="1.0" encoding="utf-8"?>
<!-- Generator: Adobe Illustrator 24.2.1, SVG Export Plug-In . SVG Version: 6.00 Build 0)  -->
<svg version="1.1" id="Ebene_1" xmlns="http://www.w3.org/2000/svg" xmlns:xlink="http://www.w3.org/1999/xlink" x="0px" y="0px"
	 viewBox="0 0 42.3 18.9" style="enable-background:new 0 0 42.3 18.9;" xml:space="preserve">
<style type="text/css">
	.st0{fill-rule:evenodd;clip-rule:evenodd;fill:#090509;}
</style>
<desc>Created with Sketch.</desc>
<path class="st0" d="M40.3,11.5c-0.5-0.8-1.7-0.9-2.4-0.1l-1.3,1.7l-2.9-4.8c-0.5-0.8-1.7-0.9-2.3-0.1L29,11.5L22.4,0.7
	c0,0,0,0,0-0.1c0,0,0-0.1-0.1-0.1c0,0-0.1-0.1-0.1-0.1c0,0-0.1-0.1-0.1-0.1c0,0-0.1,0-0.1-0.1c0,0,0,0-0.1,0c0,0-0.1,0-0.1-0.1
	c0,0,0,0-0.1,0c-0.1,0-0.1-0.1-0.2-0.1c0,0,0,0-0.1,0c-0.1,0-0.1,0-0.2,0c0,0-0.1,0-0.1,0c0,0-0.1,0-0.1,0c-0.1,0-0.1,0-0.2,0
	c0,0,0,0-0.1,0c-0.1,0-0.1,0-0.2,0.1c0,0,0,0-0.1,0c0,0-0.1,0-0.1,0.1c0,0,0,0-0.1,0c0,0-0.1,0-0.1,0.1c0,0-0.1,0.1-0.1,0.1
	c0,0-0.1,0.1-0.1,0.1c0,0,0,0.1-0.1,0.1c0,0,0,0,0,0.1l-6.6,10.8l-2.5-3.2c-0.6-0.8-1.8-0.8-2.3,0.1l-2.9,4.8l-1.3-1.7
	c-0.6-0.8-1.8-0.8-2.4,0.1l-2,3.3v4.1c0.5,0,0.9-0.2,1.2-0.7l2.1-3.5l1.3,1.8c0.6,0.8,1.8,0.8,2.4-0.1l2.9-4.8l2.5,3.2
	c0.6,0.8,1.8,0.7,2.3-0.1l6.5-10.7l6.5,10.7c0.5,0.8,1.7,0.9,2.3,0.1l2.5-3.2l2.9,4.8c0.5,0.8,1.7,0.9,2.4,0.1l1.3-1.8l2.1,3.5
	c0.3,0.4,0.7,0.6,1.2,0.7v-4.1L40.3,11.5z"/>
</svg>
