<?xml version="1.0" encoding="utf-8"?>
<!-- Generator: Adobe Illustrator 24.2.1, SVG Export Plug-In . SVG Version: 6.00 Build 0)  -->
<svg version="1.1" id="Ebene_1" xmlns="http://www.w3.org/2000/svg" xmlns:xlink="http://www.w3.org/1999/xlink" x="0px" y="0px"
	 viewBox="0 0 32.9 17.1" style="enable-background:new 0 0 32.9 17.1;" xml:space="preserve">
<style type="text/css">
	.st0{fill:#FDD835;}
</style>
<desc>Created with Sketch.</desc>
<g>
	<path class="st0" d="M29.8,2.1c-2.8-2.8-7.4-2.8-10.2,0c-0.9,0.9-2,1.3-3.1,1.3c-1.1,0-2.3-0.4-3.1-1.3c-2.8-2.8-7.4-2.8-10.2,0
		C2.3,3,1.1,3.4,0,3.4v2.7c1.8,0,3.7-0.7,5.1-2.1c1.7-1.7,4.6-1.7,6.3,0c1.4,1.4,3.2,2.1,5.1,2.1c1.8,0,3.7-0.7,5.1-2.1
		c1.7-1.7,4.6-1.7,6.3,0c1.4,1.4,3.2,2.1,5.1,2.1V3.4C31.8,3.4,30.6,3,29.8,2.1z"/>
	<path class="st0" d="M19.6,7.6c-0.9,0.9-2,1.3-3.1,1.3c-1.1,0-2.3-0.4-3.1-1.3c-2.8-2.8-7.4-2.8-10.2,0C2.3,8.5,1.1,8.9,0,8.9v2.7
		c1.8,0,3.7-0.7,5.1-2.1c1.7-1.7,4.6-1.7,6.3,0c1.4,1.4,3.2,2.1,5.1,2.1c1.8,0,3.7-0.7,5.1-2.1c1.7-1.7,4.6-1.7,6.3,0
		c1.4,1.4,3.2,2.1,5.1,2.1V8.9c-1.1,0-2.3-0.4-3.1-1.3C27,4.8,22.4,4.8,19.6,7.6z"/>
	<path class="st0" d="M19.6,13.1c-0.9,0.9-2,1.3-3.1,1.3c-1.1,0-2.3-0.4-3.1-1.3c-2.8-2.8-7.4-2.8-10.2,0c-0.9,0.9-2,1.3-3.1,1.3
		v2.7c1.8,0,3.7-0.7,5.1-2.1c1.7-1.7,4.6-1.7,6.3,0c1.4,1.4,3.2,2.1,5.1,2.1c1.8,0,3.7-0.7,5.1-2.1c1.7-1.7,4.6-1.7,6.3,0
		c1.4,1.4,3.2,2.1,5.1,2.1v-2.7c-1.1,0-2.3-0.4-3.1-1.3C27,10.3,22.4,10.3,19.6,13.1z"/>
</g>
</svg>
