<?xml version="1.0" encoding="utf-8"?>
<!-- Generator: Adobe Illustrator 24.2.1, SVG Export Plug-In . SVG Version: 6.00 Build 0)  -->
<svg version="1.1" id="Ebene_1" xmlns="http://www.w3.org/2000/svg" xmlns:xlink="http://www.w3.org/1999/xlink" x="0px" y="0px"
	 viewBox="0 0 40 15.7" style="enable-background:new 0 0 40 15.7;" xml:space="preserve">
<desc>Created with Sketch.</desc>
<g>
	<path d="M6.4,2.9h11.9h0.9h14.3c0.2,0,0.4-0.1,0.5-0.2c0.1-0.1,0.2-0.3,0.2-0.5V0.7c0-0.2-0.1-0.4-0.2-0.5C33.9,0.1,33.7,0,33.5,0
		H19.3h-0.9H6.4C6.2,0,6.1,0.1,5.9,0.2C5.8,0.4,5.7,0.5,5.7,0.7v1.4c0,0.2,0.1,0.4,0.2,0.5C6.1,2.8,6.2,2.9,6.4,2.9z"/>
	<path d="M2.1,7.1h16.2h0.9h18.6c0.2,0,0.4-0.1,0.5-0.2c0.1-0.1,0.2-0.3,0.2-0.5V5c0-0.2-0.1-0.4-0.2-0.5c-0.1-0.1-0.3-0.2-0.5-0.2
		H19.3h-0.9H2.1c-0.2,0-0.4,0.1-0.5,0.2C1.5,4.6,1.4,4.8,1.4,5v1.4c0,0.2,0.1,0.4,0.2,0.5C1.8,7.1,1.9,7.1,2.1,7.1z"/>
	<path d="M19.3,8.6h-0.9H5c-0.2,0-0.4,0.1-0.5,0.2C4.4,8.9,4.3,9.1,4.3,9.3v1.4c0,0.2,0.1,0.4,0.2,0.5c0.1,0.1,0.3,0.2,0.5,0.2h13.3
		h0.9H35c0.2,0,0.4-0.1,0.5-0.2c0.1-0.1,0.2-0.3,0.2-0.5V9.3c0-0.2-0.1-0.4-0.2-0.5c-0.1-0.1-0.3-0.2-0.5-0.2H19.3z"/>
</g>
<rect y="12.8" width="40" height="2.9"/>
</svg>
