<?xml version="1.0" encoding="utf-8"?>
<!-- Generator: Adobe Illustrator 24.2.1, SVG Export Plug-In . SVG Version: 6.00 Build 0)  -->
<svg version="1.1" id="Ebene_1" xmlns="http://www.w3.org/2000/svg" xmlns:xlink="http://www.w3.org/1999/xlink" x="0px" y="0px"
	 viewBox="0 0 17.8 14.8" style="enable-background:new 0 0 17.8 14.8;" xml:space="preserve">
<style type="text/css">
	.st0{fill-rule:evenodd;clip-rule:evenodd;}
</style>
<desc>Created with Sketch.</desc>
<g>
	<path class="st0" d="M17.7,7.4c-0.3-0.1-0.6-0.3-1.2-0.9c-0.6-0.6-1.6-1.3-2.9-1.4h-0.2h0h-0.2c-1.3,0.1-2.3,0.9-2.9,1.4
		C9.6,7.1,9.3,7.4,9,7.4c-0.1,0-0.1,0-0.1,0l0,0l0,0c0,0-0.1,0-0.1,0C8.5,7.4,8.2,7.1,7.6,6.6C7,6,6,5.3,4.7,5.2H4.5h0H4.2
		C2.9,5.3,1.9,6,1.3,6.6C0.7,7.1,0.4,7.4,0.1,7.4c-0.1,0-0.1,0-0.1,0l0,0v2.1h0.2c1.2-0.1,1.9-0.9,2.5-1.4c0.4-0.3,0.7-0.6,1-0.7
		c0.1,0,0.1-0.1,0.2-0.1c0.1,0,0.2,0,0.2-0.1c0.1,0,0.2,0,0.3,0c0.1,0,0.2,0,0.3,0c0.1,0,0.2,0,0.2,0.1c0.1,0,0.1,0.1,0.2,0.1
		c0.3,0.1,0.7,0.4,1,0.7c0.6,0.5,1.3,1.3,2.5,1.4h0.2h0.2c1.2-0.1,1.9-0.9,2.5-1.4c0.4-0.3,0.7-0.6,1-0.7c0.1,0,0.1-0.1,0.2-0.1
		c0.1,0,0.2,0,0.2-0.1c0.1,0,0.2,0,0.3,0c0.1,0,0.2,0,0.3,0c0.1,0,0.2,0,0.2,0.1c0.1,0,0.1,0.1,0.2,0.1c0.3,0.1,0.7,0.4,1,0.7
		c0.6,0.5,1.3,1.3,2.5,1.4h0.2V7.5l0,0C17.7,7.5,17.7,7.4,17.7,7.4z"/>
	<path class="st0" d="M17.7,2.3c0,0-0.1,0-0.1,0c-0.3-0.1-0.6-0.3-1.2-0.9c-0.6-0.6-1.6-1.3-2.9-1.4h-0.2h-0.1h-0.2
		c-1.3,0.1-2.3,0.8-2.9,1.4C9.6,1.9,9.3,2.2,9,2.3c-0.1,0-0.1,0-0.1,0h0h0c0,0-0.1,0-0.1,0C8.5,2.2,8.2,1.9,7.6,1.4
		C6.9,0.8,6,0.1,4.7,0H4.5H4.4H4.2C2.9,0.1,1.9,0.8,1.3,1.4C0.7,1.9,0.4,2.2,0.1,2.3c-0.1,0-0.1,0-0.1,0h0v2.1h0.2
		C1.4,4.3,2.1,3.5,2.7,3c0.5-0.5,0.9-0.8,1.5-0.9c0.1,0,0.2,0,0.3,0l0-0.1l0,0.1c0.1,0,0.2,0,0.3,0c0.6,0.1,1,0.4,1.5,0.9
		c0.6,0.5,1.3,1.3,2.5,1.4h0.2h0.2C10.3,4.3,11,3.5,11.6,3c0.5-0.5,0.9-0.8,1.5-0.9c0.1,0,0.2,0,0.3,0l0-0.1l0,0.1
		c0.1,0,0.2,0,0.3,0c0.6,0.1,1,0.4,1.5,0.9c0.6,0.5,1.3,1.3,2.5,1.4h0.2L17.7,2.3L17.7,2.3z"/>
	<path class="st0" d="M17.8,12.7c-0.4,0-0.7-0.3-1.3-0.9c-0.6-0.6-1.7-1.4-3.1-1.4l0,0c0,0,0,0,0,0c0,0,0,0,0,0l0,0
		c-1.4,0-2.5,0.8-3.1,1.4c-0.7,0.6-1,0.9-1.3,0.9v0l0,0c-0.2,0-0.3-0.1-0.5-0.2c-0.2-0.1-0.4-0.4-0.8-0.7c-0.3-0.3-0.7-0.7-1.3-0.9
		c-0.5-0.3-1.1-0.5-1.8-0.5l0,0v0c0,0,0,0,0,0c0,0,0,0,0,0c0,0,0,0,0,0c0,0,0,0,0,0l0,0v0c-0.7,0-1.3,0.2-1.8,0.5
		c-0.5,0.3-0.9,0.6-1.3,0.9c-0.3,0.3-0.6,0.5-0.8,0.7c-0.2,0.1-0.4,0.2-0.5,0.2v1.1v1.1c0.7,0,1.2-0.2,1.6-0.5
		c0.4-0.3,0.8-0.6,1.1-0.9c0.3-0.3,0.6-0.5,0.8-0.7s0.5-0.2,0.9-0.2c0.4,0,0.6,0.1,0.9,0.2s0.5,0.4,0.8,0.7c0.3,0.3,0.7,0.6,1.1,0.9
		c0.4,0.3,1,0.5,1.6,0.5c1.3,0,2.1-0.9,2.7-1.4c0.6-0.5,1-0.9,1.7-0.9c0.7,0,1.1,0.3,1.7,0.9c0.6,0.6,1.4,1.4,2.7,1.4L17.8,12.7z"/>
</g>
<path class="st0" d="M8.9,13.4"/>
</svg>
